<svg width="840" height="450" viewBox="0 0 840 450" fill="none" xmlns="http://www.w3.org/2000/svg">
<rect width="840" height="450" fill="#05182B"/>
<path d="M626 127C626.588 127 627.163 127.115 627.653 127.331C628.144 127.547 628.528 127.854 628.759 128.215C628.99 128.575 629.057 128.973 628.952 129.358C628.846 129.744 628.573 130.1 628.167 130.383C627.76 130.666 627.238 130.863 626.665 130.95C626.092 131.037 625.493 131.01 624.943 130.872C624.393 130.734 623.916 130.491 623.571 130.174C623.226 129.856 623.029 129.478 623.003 129.087L623 129L623.003 128.913C623.037 128.398 623.367 127.912 623.925 127.555C624.484 127.199 625.227 127 626 127Z" fill="#5DCFFF" fill-opacity="0.5"/>
<path d="M470 310C470.588 310 471.163 310.144 471.653 310.414C472.144 310.684 472.528 311.068 472.759 311.518C472.99 311.969 473.057 312.466 472.952 312.948C472.846 313.43 472.573 313.875 472.167 314.229C471.76 314.583 471.238 314.829 470.665 314.938C470.092 315.046 469.493 315.012 468.943 314.84C468.393 314.667 467.916 314.364 467.571 313.967C467.226 313.57 467.029 313.098 467.003 312.608L467 312.5L467.003 312.391C467.037 311.748 467.367 311.14 467.925 310.694C468.484 310.249 469.227 310 470 310Z" fill="#5DCFFF" fill-opacity="0.5"/>
<path d="M195.5 8C195.99 7.99997 196.469 8.17261 196.878 8.4965C197.286 8.82039 197.607 9.28124 197.799 9.82182C197.992 10.3624 198.047 10.9589 197.96 11.5372C197.872 12.1155 197.645 12.6501 197.306 13.0747C196.967 13.4993 196.532 13.7951 196.054 13.9254C195.577 14.0557 195.078 14.0147 194.619 13.8076C194.161 13.6004 193.763 13.2362 193.476 12.7603C193.188 12.2843 193.024 11.7175 193.002 11.1302L193 11L193.002 10.8698C193.03 10.0975 193.306 9.36787 193.771 8.8332C194.236 8.29852 194.856 8.00004 195.5 8Z" fill="#5DCFFF" fill-opacity="0.5"/>
<path d="M785.5 238C785.99 238 786.469 238.115 786.878 238.331C787.286 238.547 787.607 238.854 787.799 239.215C787.992 239.575 788.047 239.973 787.96 240.358C787.872 240.744 787.645 241.1 787.306 241.383C786.967 241.666 786.532 241.863 786.054 241.95C785.577 242.037 785.078 242.01 784.619 241.872C784.161 241.734 783.763 241.491 783.476 241.174C783.188 240.856 783.024 240.478 783.002 240.087L783 240L783.002 239.913C783.03 239.398 783.306 238.912 783.771 238.555C784.236 238.199 784.856 238 785.5 238Z" fill="#5DCFFF" fill-opacity="0.5"/>
<path d="M43.4999 310C43.9898 310 44.4688 310.144 44.8776 310.414C45.2863 310.684 45.6068 311.068 45.7991 311.518C45.9915 311.969 46.0473 312.466 45.9596 312.948C45.8719 313.43 45.6445 313.875 45.3058 314.229C44.967 314.583 44.5318 314.829 44.0542 314.938C43.5765 315.046 43.0775 315.012 42.6191 314.84C42.1607 314.667 41.7631 314.364 41.4757 313.967C41.1883 313.57 41.0238 313.098 41.0025 312.608L41 312.5L41.0025 312.391C41.0305 311.748 41.3058 311.14 41.7711 310.694C42.2364 310.249 42.8557 310 43.4999 310Z" fill="#5DCFFF" fill-opacity="0.5"/>
<path d="M102.5 446C102.99 446 103.469 446.115 103.878 446.331C104.286 446.547 104.607 446.854 104.799 447.215C104.992 447.575 105.047 447.973 104.96 448.358C104.872 448.744 104.645 449.1 104.306 449.383C103.967 449.666 103.532 449.863 103.054 449.95C102.577 450.037 102.078 450.01 101.619 449.872C101.161 449.734 100.763 449.491 100.476 449.174C100.188 448.856 100.024 448.478 100.002 448.087L100 448L100.002 447.913C100.03 447.398 100.306 446.912 100.771 446.555C101.236 446.199 101.856 446 102.5 446Z" fill="#5DCFFF" fill-opacity="0.5"/>
<path d="M115.5 159C115.99 159 116.469 159.115 116.878 159.331C117.286 159.547 117.607 159.854 117.799 160.215C117.992 160.575 118.047 160.973 117.96 161.358C117.872 161.744 117.645 162.1 117.306 162.383C116.967 162.666 116.532 162.863 116.054 162.95C115.577 163.037 115.078 163.01 114.619 162.872C114.161 162.734 113.763 162.491 113.476 162.174C113.188 161.856 113.024 161.478 113.002 161.087L113 161L113.002 160.913C113.03 160.398 113.306 159.912 113.771 159.555C114.236 159.199 114.856 159 115.5 159Z" fill="#5DCFFF" fill-opacity="0.5"/>
<path d="M802.5 426C802.99 426 803.469 426.115 803.878 426.331C804.286 426.547 804.607 426.854 804.799 427.215C804.992 427.575 805.047 427.973 804.96 428.358C804.872 428.744 804.645 429.1 804.306 429.383C803.967 429.666 803.532 429.863 803.054 429.95C802.577 430.037 802.078 430.01 801.619 429.872C801.161 429.734 800.763 429.491 800.476 429.174C800.188 428.856 800.024 428.478 800.002 428.087L800 428L800.002 427.913C800.03 427.398 800.306 426.912 800.771 426.555C801.236 426.199 801.856 426 802.5 426Z" fill="#5DCFFF" fill-opacity="0.5"/>
<g filter="url(#filter0_d_68_14)">
<rect x="138" y="73" width="563" height="303" rx="10" fill="#5DCFFF" fill-opacity="0.1" shape-rendering="crispEdges"/>
<rect x="138.5" y="73.5" width="562" height="302" rx="9.5" stroke="#5DCFFF" stroke-opacity="0.7" shape-rendering="crispEdges"/>
</g>
<path d="M371.192 271.13C370.56 271.13 370.031 271.03 369.606 270.831C369.19 270.623 368.878 270.311 368.67 269.895L368.93 270.012V271H367.916V268.452H368.891C368.926 268.972 369.086 269.362 369.372 269.622C369.658 269.882 370.157 270.012 370.867 270.012C371.439 270.012 371.847 269.912 372.089 269.713C372.332 269.514 372.453 269.275 372.453 268.998C372.453 268.755 372.367 268.56 372.193 268.413C372.02 268.257 371.717 268.136 371.283 268.049L369.918 267.776C369.277 267.646 368.774 267.399 368.41 267.035C368.055 266.662 367.877 266.186 367.877 265.605C367.877 265.18 367.977 264.795 368.176 264.448C368.384 264.093 368.692 263.811 369.099 263.603C369.507 263.395 370.005 263.291 370.594 263.291C371.149 263.291 371.617 263.395 371.998 263.603C372.388 263.802 372.679 264.11 372.869 264.526H372.609V263.421H373.623V265.657H372.648C372.614 265.293 372.445 264.994 372.141 264.76C371.847 264.526 371.418 264.409 370.854 264.409C370.516 264.409 370.239 264.457 370.022 264.552C369.814 264.639 369.663 264.756 369.567 264.903C369.472 265.05 369.424 265.211 369.424 265.384C369.424 265.618 369.507 265.813 369.671 265.969C369.845 266.116 370.131 266.229 370.529 266.307L371.894 266.58C372.57 266.719 373.09 266.961 373.454 267.308C373.818 267.646 374 268.131 374 268.764C374 269.206 373.892 269.605 373.675 269.96C373.459 270.315 373.142 270.601 372.726 270.818C372.31 271.026 371.799 271.13 371.192 271.13ZM381.663 271.13C381.1 271.13 380.606 271.009 380.181 270.766C379.756 270.523 379.427 270.194 379.193 269.778C378.959 269.362 378.842 268.903 378.842 268.4C378.842 267.889 378.959 267.429 379.193 267.022C379.427 266.615 379.756 266.29 380.181 266.047C380.606 265.804 381.1 265.683 381.663 265.683C382.226 265.683 382.72 265.804 383.145 266.047C383.57 266.29 383.899 266.615 384.133 267.022C384.367 267.429 384.484 267.889 384.484 268.4C384.484 268.903 384.367 269.362 384.133 269.778C383.899 270.194 383.57 270.523 383.145 270.766C382.72 271.009 382.226 271.13 381.663 271.13ZM381.663 270.038C382.122 270.038 382.491 269.886 382.768 269.583C383.054 269.271 383.197 268.877 383.197 268.4C383.197 267.923 383.054 267.533 382.768 267.23C382.491 266.927 382.122 266.775 381.663 266.775C381.195 266.775 380.822 266.927 380.545 267.23C380.268 267.533 380.129 267.923 380.129 268.4C380.129 268.877 380.268 269.271 380.545 269.583C380.822 269.886 381.195 270.038 381.663 270.038ZM389.007 271V269.999H389.826V264.422H388.955V263.421H391.152V266.606L390.892 266.645C391.222 266.316 391.577 266.073 391.958 265.917C392.348 265.761 392.734 265.683 393.115 265.683C393.661 265.683 394.09 265.83 394.402 266.125C394.714 266.411 394.87 266.862 394.87 267.477V269.999H395.611V271H392.725V269.999H393.544V267.815C393.544 267.468 393.466 267.217 393.31 267.061C393.154 266.905 392.907 266.827 392.569 266.827C392.318 266.827 392.062 266.875 391.802 266.97C391.542 267.065 391.274 267.234 390.996 267.477L391.152 267.061V269.999H391.893V271H389.007ZM402.152 271.13C401.519 271.13 401.034 270.987 400.696 270.701C400.366 270.406 400.202 270.025 400.202 269.557C400.202 269.072 400.379 268.69 400.735 268.413C401.099 268.136 401.636 267.997 402.347 267.997C402.572 267.997 402.828 268.019 403.114 268.062C403.4 268.105 403.664 268.162 403.907 268.231L403.686 268.374V267.802C403.686 267.49 403.582 267.252 403.374 267.087C403.166 266.914 402.849 266.827 402.425 266.827C402.13 266.827 401.84 266.866 401.554 266.944C401.268 267.022 400.995 267.135 400.735 267.282L400.41 266.229C400.748 266.047 401.112 265.913 401.502 265.826C401.892 265.731 402.247 265.683 402.568 265.683C403.365 265.683 403.972 265.865 404.388 266.229C404.804 266.584 405.012 267.113 405.012 267.815V269.999H405.753V271H403.79V270.155L403.985 270.311C403.768 270.571 403.491 270.775 403.153 270.922C402.815 271.061 402.481 271.13 402.152 271.13ZM402.451 270.116C402.702 270.116 402.958 270.068 403.218 269.973C403.486 269.869 403.686 269.743 403.816 269.596L403.686 269.986V268.764L403.907 269.128C403.681 269.059 403.456 269.011 403.231 268.985C403.005 268.959 402.789 268.946 402.581 268.946C402.234 268.946 401.965 268.998 401.775 269.102C401.593 269.197 401.502 269.345 401.502 269.544C401.502 269.726 401.584 269.869 401.749 269.973C401.913 270.068 402.147 270.116 402.451 270.116ZM410.14 271V269.999H410.946V266.814H410.075V265.813H412.181V266.606L412.012 266.645C412.341 266.316 412.696 266.073 413.078 265.917C413.468 265.761 413.853 265.683 414.235 265.683C414.781 265.683 415.21 265.83 415.522 266.125C415.834 266.411 415.99 266.862 415.99 267.477V269.999H416.731V271H413.858V269.999H414.664V267.815C414.664 267.468 414.586 267.217 414.43 267.061C414.274 266.905 414.027 266.827 413.689 266.827C413.437 266.827 413.182 266.875 412.922 266.97C412.662 267.065 412.393 267.234 412.116 267.477L412.272 267.061V269.999H413.026V271H410.14ZM424.881 271.13C424.248 271.13 423.72 271.03 423.295 270.831C422.879 270.623 422.567 270.311 422.359 269.895L422.619 270.012V271H421.605V268.452H422.58C422.615 268.972 422.775 269.362 423.061 269.622C423.347 269.882 423.845 270.012 424.556 270.012C425.128 270.012 425.535 269.912 425.778 269.713C426.021 269.514 426.142 269.275 426.142 268.998C426.142 268.755 426.055 268.56 425.882 268.413C425.709 268.257 425.405 268.136 424.972 268.049L423.607 267.776C422.966 267.646 422.463 267.399 422.099 267.035C421.744 266.662 421.566 266.186 421.566 265.605C421.566 265.18 421.666 264.795 421.865 264.448C422.073 264.093 422.381 263.811 422.788 263.603C423.195 263.395 423.694 263.291 424.283 263.291C424.838 263.291 425.306 263.395 425.687 263.603C426.077 263.802 426.367 264.11 426.558 264.526H426.298V263.421H427.312V265.657H426.337C426.302 265.293 426.133 264.994 425.83 264.76C425.535 264.526 425.106 264.409 424.543 264.409C424.205 264.409 423.928 264.457 423.711 264.552C423.503 264.639 423.351 264.756 423.256 264.903C423.161 265.05 423.113 265.211 423.113 265.384C423.113 265.618 423.195 265.813 423.36 265.969C423.533 266.116 423.819 266.229 424.218 266.307L425.583 266.58C426.259 266.719 426.779 266.961 427.143 267.308C427.507 267.646 427.689 268.131 427.689 268.764C427.689 269.206 427.581 269.605 427.364 269.96C427.147 270.315 426.831 270.601 426.415 270.818C425.999 271.026 425.488 271.13 424.881 271.13ZM435.429 271.13C434.831 271.13 434.316 271.009 433.882 270.766C433.449 270.523 433.115 270.194 432.881 269.778C432.647 269.353 432.53 268.885 432.53 268.374C432.53 267.889 432.634 267.442 432.842 267.035C433.05 266.628 433.349 266.303 433.739 266.06C434.138 265.809 434.615 265.683 435.169 265.683C435.429 265.683 435.676 265.731 435.91 265.826C436.153 265.913 436.352 266.038 436.508 266.203C436.673 266.368 436.764 266.563 436.781 266.788L436.625 266.801V265.813H437.574V267.737H436.729C436.521 267.122 436.049 266.814 435.312 266.814C434.81 266.814 434.433 266.966 434.181 267.269C433.939 267.564 433.817 267.941 433.817 268.4C433.817 268.859 433.96 269.245 434.246 269.557C434.541 269.869 434.961 270.025 435.507 270.025C435.811 270.025 436.105 269.96 436.391 269.83C436.677 269.7 436.911 269.544 437.093 269.362L437.691 270.285C437.44 270.554 437.102 270.762 436.677 270.909C436.253 271.056 435.837 271.13 435.429 271.13ZM442.228 271V269.999H443.034V266.814H442.163V265.813H444.269V267.308L444.139 267.178C444.356 266.675 444.607 266.303 444.893 266.06C445.179 265.809 445.491 265.683 445.829 265.683C446.124 265.683 446.397 265.761 446.648 265.917L446.219 267.243C446.098 267.139 445.977 267.065 445.855 267.022C445.734 266.97 445.617 266.944 445.504 266.944C445.262 266.944 445.041 267.026 444.841 267.191C444.642 267.356 444.482 267.581 444.36 267.867V269.999H445.309V271H442.228ZM450.864 271V269.999H451.67V266.814H450.799V265.813H452.996V269.999H453.737V271H450.864ZM452.333 264.994C452.064 264.994 451.856 264.916 451.709 264.76C451.561 264.604 451.488 264.405 451.488 264.162C451.488 263.911 451.561 263.707 451.709 263.551C451.856 263.386 452.064 263.304 452.333 263.304C452.593 263.304 452.796 263.386 452.944 263.551C453.091 263.707 453.165 263.911 453.165 264.162C453.165 264.405 453.091 264.604 452.944 264.76C452.796 264.916 452.593 264.994 452.333 264.994ZM458.074 265.813H460.167V266.684H460.089C460.262 266.355 460.513 266.108 460.843 265.943C461.181 265.77 461.532 265.683 461.896 265.683C462.45 265.683 462.91 265.817 463.274 266.086C463.646 266.346 463.924 266.684 464.106 267.1C464.296 267.507 464.392 267.941 464.392 268.4C464.392 268.859 464.296 269.297 464.106 269.713C463.924 270.129 463.646 270.471 463.274 270.74C462.91 271 462.45 271.13 461.896 271.13C461.532 271.13 461.181 271.043 460.843 270.87C460.513 270.697 460.262 270.45 460.089 270.129H460.271V272.222H461.012V273.223H458.126V272.222H458.945V266.814H458.074V265.813ZM461.636 269.999C462.043 269.999 462.39 269.86 462.676 269.583C462.962 269.306 463.105 268.911 463.105 268.4C463.105 267.889 462.962 267.499 462.676 267.23C462.39 266.953 462.043 266.814 461.636 266.814C461.376 266.814 461.12 266.866 460.869 266.97C460.626 267.065 460.405 267.239 460.206 267.49L460.271 266.996V269.869L460.206 269.323C460.405 269.566 460.626 269.739 460.869 269.843C461.12 269.947 461.376 269.999 461.636 269.999ZM471.597 271.13C471.043 271.13 470.583 270.978 470.219 270.675C469.864 270.363 469.686 269.865 469.686 269.18V266.814H468.815V265.813H469.686V264.11L471.012 263.876V265.813H472.442V266.814H471.012V268.998C471.012 269.379 471.095 269.639 471.259 269.778C471.424 269.917 471.649 269.986 471.935 269.986C472.057 269.986 472.169 269.973 472.273 269.947C472.386 269.912 472.486 269.878 472.572 269.843L472.754 270.844C472.616 270.922 472.442 270.987 472.234 271.039C472.035 271.1 471.823 271.13 471.597 271.13Z" fill="#5DCFFF"/>
<path d="M285.606 294.2C285.606 294.587 285.546 294.933 285.426 295.24C285.319 295.547 285.166 295.82 284.966 296.06C284.766 296.3 284.532 296.513 284.266 296.7C283.999 296.887 283.706 297.06 283.386 297.22C283.532 297.273 283.706 297.36 283.906 297.48C284.106 297.587 284.299 297.74 284.486 297.94C284.672 298.14 284.826 298.4 284.946 298.72C285.079 299.027 285.146 299.407 285.146 299.86C285.146 300.46 285.019 301.013 284.766 301.52C284.512 302.027 284.132 302.467 283.626 302.84C283.132 303.2 282.519 303.487 281.786 303.7C281.066 303.9 280.232 304 279.286 304H273.346L276.046 291.3H281.306C281.826 291.3 282.339 291.34 282.846 291.42C283.366 291.487 283.826 291.627 284.226 291.84C284.639 292.053 284.972 292.353 285.226 292.74C285.479 293.113 285.606 293.6 285.606 294.2ZM280.166 296.62C280.459 296.62 280.706 296.533 280.906 296.36C281.119 296.187 281.292 295.973 281.426 295.72C281.559 295.453 281.659 295.173 281.726 294.88C281.792 294.573 281.826 294.3 281.826 294.06C281.826 293.673 281.732 293.347 281.546 293.08C281.372 292.8 281.092 292.66 280.706 292.66H280.106L279.246 296.62H280.166ZM278.726 302.74C279.126 302.74 279.459 302.627 279.726 302.4C279.992 302.173 280.212 301.893 280.386 301.56C280.559 301.227 280.679 300.88 280.746 300.52C280.826 300.147 280.866 299.82 280.866 299.54C280.866 299.073 280.766 298.707 280.566 298.44C280.379 298.16 280.072 298.02 279.646 298.02H278.906L277.926 302.74H278.726ZM297.127 299.46C297.06 299.753 297.007 300.007 296.967 300.22C296.927 300.433 296.907 300.633 296.907 300.82C296.907 301.287 297.067 301.66 297.387 301.94C297.72 302.22 298.207 302.36 298.847 302.36C299.314 302.36 299.694 302.28 299.987 302.12C300.294 301.96 300.54 301.747 300.727 301.48C300.927 301.213 301.08 300.907 301.187 300.56C301.307 300.213 301.407 299.847 301.487 299.46L303.187 291.3H305.007L303.267 299.5C303.134 300.14 302.94 300.74 302.687 301.3C302.434 301.86 302.067 302.353 301.587 302.78C301.12 303.207 300.514 303.547 299.767 303.8C299.02 304.04 298.094 304.16 296.987 304.16C295.454 304.16 294.32 303.913 293.587 303.42C292.854 302.913 292.487 302.14 292.487 301.1C292.487 300.633 292.547 300.04 292.667 299.32C292.787 298.6 292.94 297.82 293.127 296.98L294.347 291.3H298.887L297.127 299.46ZM314.705 304H310.385L313.085 291.3H317.425L314.705 304ZM325.608 291.3H329.948L327.588 302.32H331.648L331.308 304H322.908L325.608 291.3ZM338.557 304L341.257 291.3H346.637C347.463 291.3 348.183 291.387 348.797 291.56C349.423 291.72 349.937 291.993 350.337 292.38C350.75 292.767 351.057 293.273 351.257 293.9C351.47 294.527 351.577 295.293 351.577 296.2C351.577 297.173 351.45 298.127 351.197 299.06C350.957 299.993 350.55 300.827 349.977 301.56C349.403 302.293 348.65 302.887 347.717 303.34C346.797 303.78 345.657 304 344.297 304H338.557ZM344.037 302.6C344.477 302.6 344.863 302.42 345.197 302.06C345.543 301.687 345.837 301.22 346.077 300.66C346.33 300.087 346.537 299.46 346.697 298.78C346.87 298.087 347.003 297.42 347.097 296.78C347.203 296.14 347.277 295.567 347.317 295.06C347.37 294.553 347.397 294.193 347.397 293.98C347.397 293.567 347.31 293.247 347.137 293.02C346.977 292.78 346.69 292.66 346.277 292.66H345.317L343.177 302.6H344.037ZM368.64 291.3H373.52L373.86 299.96L377.2 291.3H381.16L381.68 299.96L385.04 291.3H387.14L382.2 304H377.7L377.28 296.82L374.28 304H369.48L368.64 291.3ZM396.287 304H391.967L394.667 291.3H399.007L396.287 304ZM416.67 292.82H413.45L411.07 304H406.75L409.13 292.82H405.95L406.31 291.3H417.01L416.67 292.82ZM432.684 304H428.364L429.564 298.34H427.104L425.904 304H421.584L424.284 291.3H428.624L427.444 296.82H429.884L431.064 291.3H435.424L432.684 304ZM457.152 298.52C457.552 298.52 457.886 298.353 458.152 298.02C458.432 297.687 458.659 297.28 458.832 296.8C459.019 296.32 459.152 295.82 459.232 295.3C459.312 294.78 459.352 294.327 459.352 293.94C459.352 293.58 459.292 293.28 459.172 293.04C459.052 292.787 458.792 292.66 458.392 292.66H457.492L456.232 298.52H457.152ZM455.952 299.8L455.052 304H450.732L453.432 291.3H458.052C458.812 291.3 459.506 291.34 460.132 291.42C460.759 291.5 461.299 291.66 461.752 291.9C462.206 292.14 462.559 292.487 462.812 292.94C463.066 293.38 463.192 293.973 463.192 294.72C463.192 295.413 463.079 296.073 462.852 296.7C462.639 297.313 462.286 297.853 461.792 298.32C461.312 298.773 460.686 299.133 459.912 299.4C459.139 299.667 458.199 299.8 457.092 299.8H455.952ZM479.297 304H474.617L474.337 300.82H470.637L469.217 304H467.277L473.177 291.3H477.917L479.297 304ZM471.297 299.36H474.197L473.737 293.92L471.297 299.36ZM493.972 294.98C494.012 294.78 494.032 294.507 494.032 294.16C494.032 293.96 494.018 293.767 493.992 293.58C493.965 293.38 493.918 293.207 493.852 293.06C493.785 292.9 493.685 292.78 493.552 292.7C493.418 292.607 493.245 292.56 493.032 292.56C492.792 292.56 492.572 292.613 492.372 292.72C492.172 292.827 491.992 292.967 491.832 293.14C491.685 293.3 491.565 293.493 491.472 293.72C491.392 293.933 491.352 294.16 491.352 294.4C491.352 294.747 491.438 295.013 491.612 295.2C491.798 295.387 492.038 295.54 492.332 295.66C492.625 295.78 492.958 295.88 493.332 295.96C493.705 296.04 494.092 296.133 494.492 296.24C494.825 296.333 495.158 296.453 495.492 296.6C495.825 296.747 496.118 296.947 496.372 297.2C496.638 297.44 496.852 297.76 497.012 298.16C497.172 298.547 497.252 299.033 497.252 299.62C497.252 300.46 497.085 301.167 496.752 301.74C496.418 302.313 495.958 302.78 495.372 303.14C494.785 303.5 494.085 303.76 493.272 303.92C492.472 304.08 491.598 304.16 490.652 304.16C489.692 304.16 488.905 304.1 488.292 303.98C487.692 303.847 487.218 303.707 486.872 303.56C486.458 303.387 486.152 303.187 485.952 302.96L486.632 300.22H490.152C490.138 300.34 490.125 300.507 490.112 300.72C490.098 300.92 490.092 301.08 490.092 301.2C490.092 301.36 490.112 301.527 490.152 301.7C490.192 301.873 490.252 302.033 490.332 302.18C490.425 302.327 490.552 302.447 490.712 302.54C490.872 302.633 491.072 302.68 491.312 302.68C491.578 302.68 491.812 302.62 492.012 302.5C492.225 302.38 492.398 302.233 492.532 302.06C492.678 301.873 492.785 301.673 492.852 301.46C492.932 301.233 492.972 301.013 492.972 300.8C492.972 300.507 492.898 300.26 492.752 300.06C492.618 299.86 492.432 299.693 492.192 299.56C491.952 299.413 491.672 299.293 491.352 299.2C491.045 299.093 490.725 298.987 490.392 298.88C490.072 298.787 489.732 298.673 489.372 298.54C489.025 298.407 488.705 298.22 488.412 297.98C488.118 297.74 487.872 297.44 487.672 297.08C487.485 296.707 487.392 296.233 487.392 295.66C487.392 294.807 487.605 294.093 488.032 293.52C488.472 292.933 489.018 292.46 489.672 292.1C490.338 291.74 491.065 291.487 491.852 291.34C492.638 291.18 493.385 291.1 494.092 291.1C495.025 291.1 495.825 291.213 496.492 291.44C497.172 291.653 497.685 291.907 498.032 292.2L497.292 294.98H493.972ZM511.71 294.98C511.75 294.78 511.77 294.507 511.77 294.16C511.77 293.96 511.757 293.767 511.73 293.58C511.703 293.38 511.657 293.207 511.59 293.06C511.523 292.9 511.423 292.78 511.29 292.7C511.157 292.607 510.983 292.56 510.77 292.56C510.53 292.56 510.31 292.613 510.11 292.72C509.91 292.827 509.73 292.967 509.57 293.14C509.423 293.3 509.303 293.493 509.21 293.72C509.13 293.933 509.09 294.16 509.09 294.4C509.09 294.747 509.177 295.013 509.35 295.2C509.537 295.387 509.777 295.54 510.07 295.66C510.363 295.78 510.697 295.88 511.07 295.96C511.443 296.04 511.83 296.133 512.23 296.24C512.563 296.333 512.897 296.453 513.23 296.6C513.563 296.747 513.857 296.947 514.11 297.2C514.377 297.44 514.59 297.76 514.75 298.16C514.91 298.547 514.99 299.033 514.99 299.62C514.99 300.46 514.823 301.167 514.49 301.74C514.157 302.313 513.697 302.78 513.11 303.14C512.523 303.5 511.823 303.76 511.01 303.92C510.21 304.08 509.337 304.16 508.39 304.16C507.43 304.16 506.643 304.1 506.03 303.98C505.43 303.847 504.957 303.707 504.61 303.56C504.197 303.387 503.89 303.187 503.69 302.96L504.37 300.22H507.89C507.877 300.34 507.863 300.507 507.85 300.72C507.837 300.92 507.83 301.08 507.83 301.2C507.83 301.36 507.85 301.527 507.89 301.7C507.93 301.873 507.99 302.033 508.07 302.18C508.163 302.327 508.29 302.447 508.45 302.54C508.61 302.633 508.81 302.68 509.05 302.68C509.317 302.68 509.55 302.62 509.75 302.5C509.963 302.38 510.137 302.233 510.27 302.06C510.417 301.873 510.523 301.673 510.59 301.46C510.67 301.233 510.71 301.013 510.71 300.8C510.71 300.507 510.637 300.26 510.49 300.06C510.357 299.86 510.17 299.693 509.93 299.56C509.69 299.413 509.41 299.293 509.09 299.2C508.783 299.093 508.463 298.987 508.13 298.88C507.81 298.787 507.47 298.673 507.11 298.54C506.763 298.407 506.443 298.22 506.15 297.98C505.857 297.74 505.61 297.44 505.41 297.08C505.223 296.707 505.13 296.233 505.13 295.66C505.13 294.807 505.343 294.093 505.77 293.52C506.21 292.933 506.757 292.46 507.41 292.1C508.077 291.74 508.803 291.487 509.59 291.34C510.377 291.18 511.123 291.1 511.83 291.1C512.763 291.1 513.563 291.213 514.23 291.44C514.91 291.653 515.423 291.907 515.77 292.2L515.03 294.98H511.71ZM525.888 304H521.568L524.268 291.3H528.608L525.888 304ZM542.312 291.1C543.458 291.1 544.385 291.247 545.092 291.54C545.812 291.833 546.378 292.287 546.792 292.9C547.058 293.313 547.265 293.78 547.412 294.3C547.558 294.82 547.632 295.42 547.632 296.1C547.632 296.687 547.578 297.273 547.472 297.86C547.365 298.447 547.212 299.013 547.012 299.56C546.825 300.093 546.592 300.6 546.312 301.08C546.045 301.547 545.745 301.96 545.412 302.32C544.785 303 544.058 303.48 543.232 303.76C542.418 304.027 541.412 304.16 540.212 304.16C539.052 304.16 538.118 304.04 537.412 303.8C536.705 303.56 536.145 303.173 535.732 302.64C535.438 302.267 535.205 301.793 535.032 301.22C534.872 300.647 534.792 299.927 534.792 299.06C534.792 297.58 535.052 296.26 535.572 295.1C536.105 293.927 536.858 293 537.832 292.32C538.418 291.907 539.072 291.6 539.792 291.4C540.512 291.2 541.352 291.1 542.312 291.1ZM540.052 302.76C540.358 302.76 540.645 302.627 540.912 302.36C541.192 302.08 541.445 301.713 541.672 301.26C541.912 300.793 542.125 300.267 542.312 299.68C542.512 299.093 542.678 298.487 542.812 297.86C542.945 297.233 543.045 296.613 543.112 296C543.192 295.373 543.232 294.807 543.232 294.3C543.232 293.607 543.158 293.133 543.012 292.88C542.878 292.613 542.678 292.48 542.412 292.48C542.105 292.48 541.812 292.613 541.532 292.88C541.252 293.147 540.985 293.507 540.732 293.96C540.492 294.4 540.272 294.913 540.072 295.5C539.885 296.073 539.718 296.667 539.572 297.28C539.438 297.893 539.332 298.5 539.252 299.1C539.185 299.7 539.152 300.253 539.152 300.76C539.152 301.52 539.232 302.047 539.392 302.34C539.565 302.62 539.785 302.76 540.052 302.76ZM564.443 304H559.763L557.543 294.82L555.583 304H553.783L556.483 291.3H561.263L563.363 300.6L565.343 291.3H567.183L564.443 304Z" fill="#5DCFFF"/>
<path d="M617 344C614.33 344 612.67 345.33 612 348C613 346.67 614.17 346.17 615.5 346.5C616.26 346.69 616.81 347.24 617.41 347.85C618.39 348.85 619.5 350 622 350C624.67 350 626.33 348.67 627 346C626 347.33 624.83 347.83 623.5 347.5C622.74 347.31 622.2 346.76 621.59 346.15C620.61 345.15 619.5 344 617 344ZM612 350C609.33 350 607.67 351.33 607 354C608 352.67 609.17 352.17 610.5 352.5C611.26 352.69 611.8 353.24 612.41 353.85C613.39 354.85 614.5 356 617 356C619.67 356 621.33 354.67 622 352C621 353.33 619.83 353.83 618.5 353.5C617.74 353.31 617.2 352.76 616.59 352.15C615.61 351.15 614.5 350 612 350Z" fill="#5DCFFF"/>
<path d="M645.5 359.465C645.229 359.465 644.977 359.395 644.742 359.273L642.344 357.897C641.984 357.705 642.165 357.636 642.273 357.601C642.759 357.444 642.849 357.409 643.355 357.13C643.408 357.095 643.481 357.113 643.535 357.147L645.374 358.211C645.445 358.245 645.536 358.245 645.59 358.211L652.784 354.186C652.855 354.151 652.892 354.081 652.892 353.994V345.962C652.892 345.875 652.856 345.805 652.784 345.77L645.59 341.764C645.518 341.729 645.428 341.729 645.374 341.764L638.18 345.77C638.108 345.805 638.072 345.892 638.072 345.962V353.994C638.072 354.064 638.108 354.151 638.18 354.186L640.145 355.284C641.209 355.806 641.876 355.197 641.876 354.587V346.659C641.876 346.555 641.966 346.45 642.093 346.45H643.012C643.12 346.45 643.228 346.537 643.228 346.659V354.586C643.228 355.963 642.453 356.764 641.101 356.764C640.686 356.764 640.361 356.764 639.442 356.329L637.549 355.284C637.321 355.158 637.131 354.974 636.998 354.75C636.865 354.527 636.794 354.272 636.792 354.012V345.979C636.792 345.457 637.08 344.969 637.549 344.708L644.743 340.682C644.977 340.562 645.237 340.5 645.5 340.5C645.763 340.5 646.023 340.562 646.257 340.682L653.451 344.707C653.92 344.968 654.208 345.456 654.208 345.979V354.011C654.208 354.533 653.92 355.021 653.451 355.283L646.258 359.307C646.018 359.411 645.761 359.464 645.5 359.464M647.717 353.94C644.563 353.94 643.913 352.547 643.913 351.362C643.913 351.257 644.004 351.153 644.13 351.153H645.067C645.175 351.153 645.265 351.223 645.265 351.327C645.41 352.25 645.825 352.703 647.736 352.703C649.25 352.703 649.899 352.372 649.899 351.588C649.899 351.135 649.719 350.805 647.357 350.578C645.392 350.386 644.166 349.969 644.166 348.452C644.166 347.041 645.392 346.204 647.447 346.204C649.755 346.204 650.891 346.971 651.035 348.644C651.034 348.701 651.014 348.755 650.981 348.801C650.945 348.836 650.891 348.87 650.837 348.87H649.899C649.854 348.869 649.81 348.853 649.774 348.825C649.738 348.797 649.713 348.758 649.701 348.714C649.484 347.756 648.926 347.442 647.447 347.442C645.788 347.442 645.59 347.999 645.59 348.418C645.59 348.923 645.825 349.079 648.06 349.358C650.278 349.637 651.323 350.037 651.323 351.535C651.305 353.069 650.008 353.94 647.717 353.94Z" fill="#5DCFFF"/>
<path d="M680.323 347.007C680.097 346.974 679.903 346.877 679.677 346.813C679.71 346.684 679.71 346.555 679.774 346.361C680.226 344.039 679.904 342.201 678.871 341.555C677.839 340.975 676.161 341.587 674.484 343.039C674.354 343.168 674.129 343.297 674 343.49C673.903 343.394 673.774 343.297 673.677 343.168C671.903 341.588 670.161 340.942 669.065 341.555C668.032 342.135 667.71 343.91 668.161 346.071C668.194 346.297 668.258 346.523 668.291 346.716C668.065 346.749 667.806 346.846 667.581 346.942C665.484 347.684 664 348.878 664 350.007C664 351.232 665.58 352.458 667.742 353.167C667.935 353.2 668.097 353.297 668.29 353.297C668.258 353.523 668.161 353.748 668.161 354.007C667.741 356.136 668.065 357.845 669.097 358.426C670.129 359.071 671.935 358.426 673.613 356.878C673.742 356.748 673.871 356.652 674.033 356.523C674.202 356.689 674.385 356.84 674.581 356.974C676.194 358.426 677.871 359.007 678.936 358.426C679.968 357.781 680.323 355.974 679.871 353.716C679.839 353.587 679.839 353.362 679.741 353.168C679.871 353.136 679.968 353.136 680.097 353.038C682.355 352.362 684 351.137 684 349.91C683.968 348.91 682.42 347.749 680.323 347.007ZM675.033 343.717C676.483 342.458 677.839 342.007 678.483 342.329C679.129 342.684 679.387 344.232 678.968 346.265C678.936 346.394 678.936 346.49 678.871 346.684C678 346.49 677.161 346.329 676.258 346.264C675.774 345.555 675.226 344.814 674.645 344.232C674.742 344.038 674.873 343.863 675.032 343.716M670.547 352.07C670.741 352.425 670.967 352.748 671.193 353.07C670.584 353.036 669.98 352.95 669.386 352.812C669.535 352.219 669.751 351.645 670.031 351.102C670.161 351.392 670.386 351.78 670.547 352.07ZM669.387 347.425C669.973 347.293 670.565 347.185 671.16 347.102C670.934 347.425 670.74 347.748 670.58 348.102C670.418 348.457 670.225 348.748 670.031 349.135C669.741 348.522 669.581 347.973 669.387 347.425ZM670.417 350.102C670.643 349.554 670.966 349.07 671.288 348.522C671.611 347.973 671.933 347.489 672.224 346.973C672.804 346.941 673.385 346.941 673.998 346.941C674.578 346.941 675.224 346.973 675.772 346.973C676.127 347.457 676.417 347.973 676.708 348.457C677.03 348.941 677.288 349.49 677.578 350.037C677.353 350.587 677.03 351.07 676.708 351.619C676.385 352.167 676.062 352.651 675.772 353.167C675.192 353.199 674.611 353.199 673.966 353.199C673.321 353.199 672.74 353.167 672.192 353.167C671.837 352.683 671.546 352.167 671.256 351.619C670.966 351.07 670.708 350.651 670.417 350.102ZM677.45 352.07C677.643 351.715 677.804 351.393 677.998 351.038C678.224 351.586 678.45 352.167 678.643 352.748C678.063 352.877 677.417 352.973 676.773 353.07C677.03 352.748 677.256 352.393 677.45 352.07ZM678.03 349.102C677.837 348.748 677.675 348.425 677.482 348.07C677.289 347.715 677.062 347.425 676.902 347.135C677.497 347.218 678.089 347.325 678.675 347.457C678.482 348.006 678.256 348.554 678.03 349.102ZM674 344.75C674.42 345.201 674.774 345.653 675.129 346.137C674.355 346.105 673.581 346.105 672.807 346.137C673.226 345.621 673.645 345.169 674 344.75ZM669.484 342.36C670.129 342.006 671.613 342.49 673.097 343.909C673.194 344.006 673.29 344.102 673.419 344.167C672.839 344.812 672.29 345.522 671.742 346.199C670.864 346.289 669.991 346.429 669.129 346.619C669.097 346.425 669.032 346.199 669 346.038C668.645 344.135 668.871 342.715 669.484 342.36ZM668.58 352.62C668.45 352.587 668.257 352.523 668.096 352.49C667.197 352.246 666.353 351.83 665.612 351.265C665.16 350.942 664.934 350.555 664.838 350.103C664.838 349.393 666.096 348.491 667.87 347.845C668.096 347.749 668.322 347.716 668.547 347.62C668.805 348.49 669.128 349.297 669.483 350.103C669.16 350.91 668.805 351.716 668.58 352.62ZM673.064 356.394C672.412 356.979 671.657 357.438 670.838 357.749C670.63 357.857 670.399 357.916 670.164 357.922C669.929 357.928 669.696 357.879 669.483 357.781C668.838 357.426 668.612 356.071 668.934 354.201C668.967 353.974 669.031 353.749 669.064 353.555C669.934 353.749 670.838 353.878 671.676 353.91C672.16 354.62 672.773 355.361 673.354 356.007C673.322 356.2 673.192 356.297 673.064 356.394ZM674.031 355.491C673.611 355.039 673.257 354.587 672.87 354.103C673.225 354.103 673.58 354.136 673.999 354.136C674.418 354.136 674.805 354.136 675.16 354.103C674.806 354.523 674.45 354.975 674.031 355.491ZM679.128 356.618C679.096 357.07 678.87 357.554 678.483 357.844C677.838 358.199 676.547 357.748 675.128 356.49C674.999 356.36 674.806 356.231 674.644 356.038C675.235 355.382 675.775 354.681 676.257 353.941C677.16 353.909 678.031 353.715 678.87 353.521C678.902 353.651 678.902 353.844 678.967 353.973C679.193 354.877 679.193 355.78 679.128 356.618ZM679.838 352.458C679.741 352.49 679.612 352.49 679.483 352.554C679.225 351.683 678.838 350.877 678.483 350.07C678.838 349.296 679.16 348.457 679.418 347.619C679.644 347.651 679.838 347.748 679.999 347.812C681.805 348.457 683.063 349.36 683.063 350.07C683.096 350.812 681.773 351.812 679.838 352.457M674 351.844C675 351.844 675.774 351.038 675.774 350.07C675.77 349.601 675.581 349.152 675.249 348.821C674.918 348.489 674.469 348.301 674 348.297C673.065 348.297 672.226 349.103 672.226 350.071C672.226 351.039 673 351.845 674 351.845" fill="#5DCFFF"/>
<rect x="420.15" y="175.534" width="12.9785" height="12.9785" transform="rotate(45 420.15 175.534)" fill="#6FCBFF"/>
<path d="M419.609 219.875L400.682 219.875L435.861 184.696L454.656 184.696L419.609 219.875Z" fill="url(#paint0_linear_68_14)"/>
<path d="M404.288 184.711L385.36 184.711L420.72 149.366L439.437 149.366L404.288 184.711Z" fill="url(#paint1_linear_68_14)"/>
<path d="M385.721 184.351H455L454.28 185.072H385L385.721 184.351Z" fill="#6FCBFF"/>
<defs>
<filter id="filter0_d_68_14" x="126" y="61" width="587" height="327" filterUnits="userSpaceOnUse" color-interpolation-filters="sRGB">
<feFlood flood-opacity="0" result="BackgroundImageFix"/>
<feColorMatrix in="SourceAlpha" type="matrix" values="0 0 0 0 0 0 0 0 0 0 0 0 0 0 0 0 0 0 127 0" result="hardAlpha"/>
<feOffset/>
<feGaussianBlur stdDeviation="6"/>
<feComposite in2="hardAlpha" operator="out"/>
<feColorMatrix type="matrix" values="0 0 0 0 0.364706 0 0 0 0 0.811765 0 0 0 0 1 0 0 0 0.4 0"/>
<feBlend mode="normal" in2="BackgroundImageFix" result="effect1_dropShadow_68_14"/>
<feBlend mode="normal" in="SourceGraphic" in2="effect1_dropShadow_68_14" result="shape"/>
</filter>
<linearGradient id="paint0_linear_68_14" x1="443.944" y1="190.119" x2="396.897" y2="226.891" gradientUnits="userSpaceOnUse">
<stop stop-color="#6FCBFF"/>
<stop offset="1" stop-color="#071828"/>
</linearGradient>
<linearGradient id="paint1_linear_68_14" x1="395.274" y1="180.025" x2="443.403" y2="140.008" gradientUnits="userSpaceOnUse">
<stop stop-color="#6FCBFF"/>
<stop offset="1" stop-color="#071828"/>
</linearGradient>
</defs>
</svg>
